<?xml version="1.0" encoding="utf-8"?>
<!-- Svg Vector Icons : http://www.onlinewebfonts.com/icon -->
<!DOCTYPE svg PUBLIC "-//W3C//DTD SVG 1.1//EN" "http://www.w3.org/Graphics/SVG/1.1/DTD/svg11.dtd">
<svg xmlns="http://www.w3.org/2000/svg" xmlns:xlink="http://www.w3.org/1999/xlink" x="0px" y="0px" viewBox="0 0 1000 1000" enable-background="new 0 0 1000 1000" xml:space="preserve">

<g><path d="M41,242.8c284.3,0,568.7,0,853,0c40.9,0,117.5-61.8,43.5-61.8c-284.3,0-568.7,0-853,0C43.6,180.9-33.1,242.8,41,242.8L41,242.8z"/>
<path d="M123.8,520c263.8,16.1,529-0.8,792.4,22.7c74,6.6,62.8-78.8-1-84.5c-263.6-23.5-528.5-6.6-792.4-22.7C49,431,59.7,516.1,123.8,520L123.8,520z"/>
<path d="M111.6,800.1c282.8,0.8,565.2,18.1,848,18.9c68,0.2,7.1-86.2-37.1-86.4c-282.8-0.8-565.2-18.1-848-18.9C6.5,713.6,67.3,800,111.6,800.1L111.6,800.1z"/>
</g>
</svg>