<?xml version="1.0" encoding="utf-8"?>
<!-- Svg Vector Icons : http://www.onlinewebfonts.com/icon -->
<!DOCTYPE svg PUBLIC "-//W3C//DTD SVG 1.1//EN" "http://www.w3.org/Graphics/SVG/1.1/DTD/svg11.dtd">
<svg version="1.1" xmlns="http://www.w3.org/2000/svg" xmlns:xlink="http://www.w3.org/1999/xlink" x="0px" y="0px" viewBox="0 0 1000 1000" enable-background="new 0 0 1000 1000" xml:space="preserve">
<metadata> Svg Vector Icons : http://www.onlinewebfonts.com/icon </metadata>
<g><g transform="translate(0.000000,511.000000) scale(0.100000,-0.100000)"><path d="M4260.1,4989c-665.1-71.3-1374-349.8-1905.6-752.6c-787.1-596.1-1304.9-1417.7-1512.1-2393.5l-52.9-246.3l-6.9-3192.2L775.6-4790h2936.7h2934.4v734.2v734.2l363.7,6.9c361.3,9.2,361.3,9.2,536.2,92.1c280.8,135.8,483.3,379.8,547.8,667.5c13.8,57.5,25.3,446.5,25.3,902.2v798.6H8672c303.8,0,552.4,6.9,552.4,18.4c0,16.1-317.6,1353.3-508.6,2133.5c-181.8,750.3-338.3,1215.2-566.2,1691.6c-593.8,1247.4-1519,1873.4-2952.8,2002.3C4893,5016.6,4531.7,5016.6,4260.1,4989z M3719.2,2567.8l349.8-349.8l-563.9-563.9l-563.9-563.9l563.9-563.9l563.9-563.9l-352.1-352.1l-349.8-349.8L2591.5,38.5c-522.4,522.4-787.1,803.2-812.4,860.8c-46,112.8-43.7,301.5,4.6,405c23,50.6,340.6,391.3,798.6,851.5c418.9,418.9,766.4,764.1,773.3,764.1S3525.9,2761.2,3719.2,2567.8z M6800.9,2153.6c506.3-506.3,775.6-794,800.9-849.3c46-110.5,43.7-322.2-2.3-416.6c-20.7-41.4-384.3-423.5-810.1-849.3l-775.6-777.9L5664-389.6L5311.8-37.5l563.9,563.9l563.9,563.9l-563.9,563.9L5311.8,2218l349.9,349.8c193.3,193.3,356.7,352.1,363.6,352.1C6032.2,2920,6382,2574.7,6800.9,2153.6z"/></g></g>
</svg>